# xmcd CD database file
#
# Track frame offsets:
#	150
#	25526
#	39139
#	60781
#	77219
#	101169
#	121328
#	139300
#	161157
#	177901
#	200561
#	224656
#
# Disc length: 3252 seconds
#
# Revision: 3
# Processed by: cddbd v1.5PL3 Copyright (c) Steve Scherf et al.
# Submitted via: CDex 1.50beta8
#
DISCID=a30cb20c
DTITLE=事実 - 笹川美和
DYEAR=2003
DGENRE=JPop
TTITLE0=事実
TTITLE1=太陽
TTITLE2=黒子
TTITLE3=どうぞ
TTITLE4=髪
TTITLE5=笑
TTITLE6=ウエイシェンマ
TTITLE7=金木犀
TTITLE8=隧道
TTITLE9=尽くす
TTITLE10=ならば
TTITLE11=ただただ
EXTD=YEAR: 2003
EXTT0=
EXTT1=
EXTT2=
EXTT3=
EXTT4=
EXTT5=
EXTT6=
EXTT7=
EXTT8=
EXTT9=
EXTT10=
EXTT11=
PLAYORDER=
